<svg xmlns="http://www.w3.org/2000/svg" xmlns:xlink="http://www.w3.org/1999/xlink" width="287" height="61" version="1.1"><rect id="backgroundrect" width="100%" height="100%" x="0" y="0" fill="none" stroke="none"/>
    <!-- Generator: Sketch 47.1 (45422) - http://www.bohemiancoding.com/sketch -->
    <title>mask</title>
    <desc>Created with Sketch.</desc>
    <defs>
        <rect id="path-1" x="0" y="0" width="287" height="104"/>
        <linearGradient x1="50%" y1="2.22044605e-14%" x2="50%" y2="98.7065529%" id="linearGradient-3">
            <stop stop-color="#FFFFFF" stop-opacity="0.8" offset="0%"/>
            <stop stop-color="#D66554" offset="100%"/>
        </linearGradient>
    </defs>
    
<g class="currentLayer" style=""><title>Layer 1</title><g id="Page-1" stroke="none" stroke-width="1" fill="#8a6cc1" fill-rule="evenodd" class="selected" fill-opacity="1">
        <g id="apollo-2---vertical-/-dark" fill="#8a6cc1">
            <g id="boxes" fill="#8a6cc1">
                <g id="box-/-social-shares" fill="#8a6cc1">
                    <g id="mask" fill="#8a6cc1">
                        <mask id="mask-2" fill="white" transform="translate(918,0) translate(215,63) translate(-1133,-106) ">
                            <use xlink:href="#path-1" id="svg_1"/>
                        </mask>
                        <g id="bg-box" fill="#8a6cc1"/>
                        <path d="M-5.903927919999887,64.711481 C3.177516799999921,64.711481 7.545065159999922,43.6968914 20.70265590000008,43.9071641 C33.86024659999998,44.1174369 30.780966900000067,49.2197608 47.18766810000011,49.3603576 C63.594369299999926,49.500954500000006 57.15717829999994,46.37383869999999 74.02348140000004,46.108885 C90.88978440000005,45.8439312 86.92791910000005,25.419496800000005 101.08480400000008,25.419496800000005 C115.24168899999995,25.419496800000005 110.088122,46.1324733 128.39669500000002,46.108885 C146.70526700000005,46.08529660000001 139.99664800000005,39.6506148 153.956993,39.740045499999994 C167.91733899999997,39.829476299999996 164.635179,49.0267003 179.90676199999996,48.948362 C195.17834500000004,48.870023700000004 194.75329499999998,16.928255399999998 207.049934,16.8967295 C219.34657400000003,16.865203700000002 220.049889,35.63501719999999 233.308858,35.5853099 C246.56782699999997,35.535602600000004 247.08935599999995,17.0580457 259.809298,16.8967295 C272.52923899999996,16.7354134 274.73101199999996,0.26770640000000157 286.84246400000006,0.2814166000000001 C294.91676400000006,0.2905567000000034 296.15969900000005,5.828994299999998 290.5712679999999,16.8967295 L290.5712679999999,81 L-10.538001200000053,81 C-13.502915499999972,70.140987 -11.958224400000063,64.711481 -5.903927919999887,64.711481 z" id="Primary" fill="#8a6cc1" opacity="0.600000024" mask="url(#mask-2)"/>
                    </g>
                </g>
            </g>
        </g>
    </g></g></svg>